<svg width="30" height="30" viewBox="0 0 30 30" fill="none" xmlns="http://www.w3.org/2000/svg">
<path d="M11.75 15.5653V15.0738M18.25 15.5653V15.0738M14.7833 11.3876V9.91309" stroke="white" stroke-width="2.5" stroke-linecap="round"/>
<path d="M2 15C2 7.82029 7.82029 2 15 2C22.1797 2 28 7.82029 28 15V24.2857C28 24.7169 28 24.9325 27.9797 25.114C27.8099 26.6206 26.6206 27.8099 25.114 27.9797C24.9325 28 24.7169 28 24.2857 28H15C7.82029 28 2 22.1797 2 15Z" stroke="white" stroke-width="2.5"/>
<path d="M18.5 12.1729H11.5C9.84315 12.1729 8.5 13.3116 8.5 14.7163V17.5424C8.5 18.9471 9.84315 20.0859 11.5 20.0859H18.5C20.1569 20.0859 21.5 18.9471 21.5 17.5424V14.7163C21.5 13.3116 20.1569 12.1729 18.5 12.1729Z" stroke="white" stroke-width="2.5"/>
</svg>
