<svg width="27" height="27" viewBox="0 0 27 27" fill="none" xmlns="http://www.w3.org/2000/svg">
<path d="M2.91667 26.25C2.11458 26.25 1.42795 25.9644 0.856771 25.3932C0.28559 24.822 0 24.1354 0 23.3333V2.91667C0 2.11458 0.28559 1.42795 0.856771 0.856771C1.42795 0.28559 2.11458 0 2.91667 0H18.9583L26.25 7.29167V23.3333C26.25 24.1354 25.9644 24.822 25.3932 25.3932C24.822 25.9644 24.1354 26.25 23.3333 26.25H2.91667ZM2.91667 23.3333H23.3333V8.75H17.5V2.91667H2.91667V23.3333ZM5.83333 20.4167H20.4167V17.5H5.83333V20.4167ZM5.83333 8.75H13.125V5.83333H5.83333V8.75ZM5.83333 14.5833H20.4167V11.6667H5.83333V14.5833Z" fill="white"/>
</svg>
