<svg width="28" height="27" viewBox="0 0 28 27" fill="none" xmlns="http://www.w3.org/2000/svg">
<path d="M14 0C13.6951 1.89259e-05 13.4022 0.11375 13.1842 0.31684L0.458008 10.23C0.443309 10.2406 0.428874 10.2514 0.414714 10.2626L0.371419 10.2973V10.2995C0.254406 10.4033 0.161054 10.5289 0.0971604 10.6685C0.0332664 10.8082 0.00019492 10.9588 0 11.1111C0 11.4058 0.122916 11.6884 0.341709 11.8968C0.560501 12.1052 0.857247 12.2222 1.16667 12.2222H2.33333V24.4444C2.33333 25.6722 3.3775 26.6667 4.66667 26.6667H23.3333C24.6225 26.6667 25.6667 25.6722 25.6667 24.4444V12.2222H26.8333C27.1428 12.2222 27.4395 12.1052 27.6583 11.8968C27.8771 11.6884 28 11.4058 28 11.1111C28.0001 10.9584 27.9672 10.8074 27.9033 10.6674C27.8394 10.5273 27.7459 10.4014 27.6286 10.2973L27.6104 10.2843C27.5848 10.2622 27.5581 10.2412 27.5306 10.2214L25.6667 8.76953V4.44444C25.6667 3.83111 25.144 3.33333 24.5 3.33333H23.3333C22.6893 3.33333 22.1667 3.83111 22.1667 4.44444V6.04384L14.7907 0.297309C14.5758 0.107029 14.2934 0.000872594 14 0ZM17.5 14.4444H22.1667V23.3333H17.5V14.4444Z" fill="white"/>
</svg>
