<svg width="31" height="31" viewBox="0 0 31 31" fill="none" xmlns="http://www.w3.org/2000/svg">
<path d="M11.1251 24.25H19.1459C19.5591 24.25 19.9422 24.1465 20.2951 23.9394C20.648 23.7323 20.8969 23.447 21.0417 23.0834L24.1042 15.9375C24.1529 15.816 24.1893 15.6945 24.2136 15.5729C24.2379 15.4514 24.2501 15.3299 24.2501 15.2084V14.0417C24.2501 13.6285 24.1101 13.2819 23.8301 13.0019C23.5501 12.7219 23.204 12.5824 22.7917 12.5834H16.0834L16.9584 7.62502C17.007 7.38196 16.9949 7.15106 16.922 6.93231C16.849 6.71356 16.7275 6.51912 16.5574 6.34898L15.5001 5.29169L8.79175 12.5834C8.5973 12.7778 8.45147 12.9965 8.35425 13.2396C8.25703 13.4827 8.20842 13.75 8.20842 14.0417V21.3334C8.20842 22.1354 8.49425 22.8223 9.06592 23.394C9.63758 23.9656 10.324 24.251 11.1251 24.25ZM15.5001 30.0834C13.4827 30.0834 11.5869 29.7003 9.81258 28.9342C8.03828 28.1681 6.49487 27.1293 5.18237 25.8177C3.86987 24.5062 2.83106 22.9628 2.06592 21.1875C1.30078 19.4122 0.917722 17.5164 0.91675 15.5C0.915778 13.4836 1.29883 11.5878 2.06592 9.81252C2.833 8.03724 3.87182 6.49384 5.18237 5.18231C6.49293 3.87078 8.03633 2.83197 9.81258 2.06585C11.5888 1.29974 13.4847 0.916687 15.5001 0.916687C17.5155 0.916687 19.4113 1.29974 21.1876 2.06585C22.9638 2.83197 24.5072 3.87078 25.8178 5.18231C27.1283 6.49384 28.1676 8.03724 28.9357 9.81252C29.7038 11.5878 30.0863 13.4836 30.0834 15.5C30.0805 17.5164 29.6974 19.4122 28.9342 21.1875C28.1711 22.9628 27.1322 24.5062 25.8178 25.8177C24.5033 27.1293 22.9599 28.1686 21.1876 28.9356C19.4152 29.7027 17.5194 30.0853 15.5001 30.0834Z" fill="white"/>
</svg>
